<?xml version="1.0" standalone="no"?>
<!DOCTYPE svg PUBLIC "-//W3C//DTD SVG 1.1//EN" "http://www.w3.org/Graphics/SVG/1.1/DTD/svg11.dtd" >
<svg xmlns="http://www.w3.org/2000/svg">
<metadata></metadata>
<defs>
<font id="nissanregular" horiz-adv-x="1406" >
<font-face units-per-em="2048" ascent="1638" descent="-410" />
<missing-glyph horiz-adv-x="546" />
<glyph horiz-adv-x="2048" />
<glyph horiz-adv-x="2048" />
<glyph unicode="&#xd;" horiz-adv-x="546" />
<glyph unicode=" "  horiz-adv-x="546" />
<glyph unicode="&#x09;" horiz-adv-x="546" />
<glyph unicode="&#xa0;" horiz-adv-x="546" />
<glyph unicode="!" horiz-adv-x="509" d="M68 0v354h372v-354h-372zM68 1366h372l-28 -862h-318z" />
<glyph unicode="&#x26;" horiz-adv-x="1619" d="M68 389q0 127 41 201t141 129q-90 61 -127 131t-37 182q0 94 47 174t127 115q92 45 301 45h524v-307h-618v-215h350v-307h-371v-236h525v543h579v-307h-207v-66q0 -168 -36.5 -257t-124.5 -138t-212 -67.5t-356 -18.5q-160 0 -243.5 16.5t-154.5 64.5t-109.5 131 t-38.5 187z" />
<glyph unicode="(" horiz-adv-x="747" d="M68 145v736q0 168 19 248.5t73 136.5q98 100 323 100h195v-240h-287v-1218h287v-236h-219q-109 0 -193 33t-129 92q-37 51 -53 131t-16 217z" />
<glyph unicode=")" horiz-adv-x="747" d="M68 -92h286v1218h-286v240h194q264 0 354 -139q33 -51 47.5 -130t14.5 -216v-736q0 -168 -22.5 -249.5t-82.5 -135.5q-100 -88 -286 -88h-219v236z" />
<glyph unicode="+" horiz-adv-x="1228" d="M137 575v230h363v354h231v-354h361v-230h-361v-356h-231v356h-363z" />
<glyph unicode="," horiz-adv-x="530" d="M68 -143h190v170h-170v329h373v-211q0 -174 -22.5 -256t-84.5 -131q-47 -35 -109.5 -49t-176.5 -14v162z" />
<glyph unicode="-" horiz-adv-x="794" d="M68 557v287h657v-287h-657z" />
<glyph unicode="." horiz-adv-x="530" d="M88 0v354h373v-354h-373z" />
<glyph unicode="/" horiz-adv-x="1067" d="M68 -326l692 1692h239l-694 -1692h-237z" />
<glyph unicode="0" d="M51 678q0 283 20.5 394.5t89 182t188.5 95t407 24.5q147 0 216.5 -6t127.5 -25q156 -51 205 -171.5t49 -452.5q0 -289 -20.5 -407.5t-84.5 -186.5q-72 -78 -195.5 -106.5t-394.5 -28.5q-231 0 -342.5 30.5t-175.5 114.5q-53 66 -71.5 178.5t-18.5 364.5zM436 299h537v770 h-537v-770z" />
<glyph unicode="1" d="M186 1059v307h760v-1366h-373v1059h-387z" />
<glyph unicode="2" d="M96 0v307q0 139 4 185.5t25 105.5q53 160 213 211q47 16 111.5 22.5t189.5 6.5h293v221h-778v307h690q137 0 207.5 -16.5t130 -63.5t94.5 -140t35 -210q0 -248 -152 -344q-61 -37 -127.5 -49.5t-210.5 -12.5h-350v-223h803v-307h-1178z" />
<glyph unicode="3" d="M123 0v307h784v223h-727v308h711v221h-768v307h711q223 0 326.5 -85t103.5 -267q0 -209 -179 -291q201 -66 201 -322q0 -209 -115.5 -305t-367.5 -96h-680z" />
<glyph unicode="4" d="M-20 248v475l638 643h543v-811h266v-307h-266v-248h-373v248h-808zM252 555h536v539z" />
<glyph unicode="5" d="M113 0v307h809v228h-772v831h1054v-307h-682v-217h250q141 0 210 -10.5t132 -43.5q180 -86 180 -344q0 -227 -118.5 -335.5t-370.5 -108.5h-692z" />
<glyph unicode="6" d="M74 743q0 223 20.5 320.5t85 169.5t162.5 102.5t268 30.5h621v-307h-782v-205h425q238 0 348.5 -104.5t110.5 -329.5q0 -229 -139 -334q-76 -55 -178.5 -75.5t-315.5 -20.5q-219 0 -298.5 13t-157.5 63q-102 66 -136 200.5t-34 476.5zM449 299h522v248h-522v-248z" />
<glyph unicode="7" d="M111 1059v307h1185v-405l-624 -961h-418l696 1059h-839z" />
<glyph unicode="8" d="M53 369q0 131 42.5 216t144.5 146q-94 61 -131 125t-37 168q0 217 176 293q78 35 171 47t275 12q209 0 293 -8t162 -40t125 -112.5t47 -191.5q0 -106 -37 -166.5t-131 -116.5q201 -74 201 -344q0 -123 -51.5 -217t-141.5 -131q-66 -29 -202 -45t-310 -16q-303 0 -428 65 q-76 41 -122 125t-46 191zM426 293h557v248h-557v-248zM442 831h512v238h-512v-238z" />
<glyph unicode="9" d="M74 944q0 229 141 334q76 55 177.5 75.5t314.5 20.5q221 0 299.5 -13t158.5 -63q102 -66 136 -200.5t34 -474.5q0 -223 -20.5 -320.5t-85 -169.5t-162.5 -102.5t-268 -30.5h-621v307h783v205h-429q-236 0 -347 105.5t-111 326.5zM436 819h525v246h-525v-246z" />
<glyph unicode=":" horiz-adv-x="530" d="M88 0v354h373v-354h-373zM88 688v354h373v-354h-373z" />
<glyph unicode=";" horiz-adv-x="530" d="M68 -143h190v170h-170v329h373v-211q0 -174 -22.5 -256t-84.5 -131q-47 -35 -109.5 -49t-176.5 -14v162zM88 688v354h373v-354h-373z" />
<glyph unicode="?" horiz-adv-x="974" d="M68 1112v254h403q166 0 234.5 -18.5t119.5 -77.5q45 -53 63.5 -121t18.5 -182q0 -279 -93 -374t-365 -95h-289v266h391v348h-483zM160 0v354h372v-354h-372z" />
<glyph unicode="A" horiz-adv-x="1628" d="M68 0l481 1366h526l484 -1366h-377l-88 254h-572l-96 -254h-358zM623 561h368l-186 547z" />
<glyph unicode="B" horiz-adv-x="1415" d="M68 0v1366h827q428 0 428 -342q0 -213 -174 -285q199 -74 199 -348q0 -100 -37 -184t-103 -131q-104 -76 -323 -76h-817zM440 307h533v246h-533v-246zM440 836h514v237h-514v-237z" />
<glyph unicode="C" horiz-adv-x="1255" d="M68 618q0 236 12 352.5t45 192.5q88 203 467 203h594v-307h-733v-752h733v-307h-588q-193 0 -299 39t-166 131q-41 63 -53 149.5t-12 298.5z" />
<glyph unicode="D" horiz-adv-x="1445" d="M68 0v1366h841q281 0 387 -152q47 -68 63.5 -170t16.5 -333q0 -289 -24.5 -408t-98.5 -190q-119 -113 -352 -113h-833zM440 307h549v752h-549v-752z" />
<glyph unicode="E" horiz-adv-x="1230" d="M68 0v1366h1095v-307h-723v-215h695v-307h-695v-230h723v-307h-1095z" />
<glyph unicode="F" horiz-adv-x="1214" d="M68 0v1366h1077v-307h-705v-242h674v-307h-674v-510h-372z" />
<glyph unicode="G" horiz-adv-x="1431" d="M68 571q0 270 10 385t41 191q49 117 168 168t348 51h635v-307h-813v-754h542v250h-313v291h678v-291q0 -213 -26.5 -308t-108.5 -163q-68 -53 -165 -73.5t-294 -20.5q-322 0 -449.5 36.5t-191.5 147.5q-37 63 -49 143t-12 254z" />
<glyph unicode="H" horiz-adv-x="1449" d="M68 0v1366h372v-518h568v518h372v-1366h-372v541h-568v-541h-372z" />
<glyph unicode="I" horiz-adv-x="509" d="M68 0v1366h372v-1366h-372z" />
<glyph unicode="J" horiz-adv-x="1091" d="M68 0v307h581v1059h373v-852q0 -176 -28.5 -265t-110.5 -157q-70 -55 -162 -73.5t-313 -18.5h-340z" />
<glyph unicode="K" horiz-adv-x="1454" d="M68 0v1366h372v-569l480 569h434l-547 -649l579 -717h-444l-502 610v-610h-372z" />
<glyph unicode="L" horiz-adv-x="1206" d="M68 0v1366h372v-1059h697v-307h-1069z" />
<glyph unicode="M" horiz-adv-x="1773" d="M68 0v1366h606l219 -1004l217 1004h594v-1366h-350v1141l-285 -1141h-371l-282 1126v-1126h-348z" />
<glyph unicode="N" horiz-adv-x="1507" d="M68 0v1366h610l401 -1100v1100h359v-1366h-590l-422 1079v-1079h-358z" />
<glyph unicode="O" horiz-adv-x="1480" d="M68 678q0 283 20.5 394.5t89 182t192.5 95t427 24.5q160 0 230.5 -6t129.5 -25q156 -53 205 -172.5t49 -451.5q0 -287 -20.5 -405.5t-83.5 -188.5q-72 -78 -198 -106.5t-404 -28.5q-180 0 -249 6t-139 31q-152 55 -200.5 181t-48.5 470zM453 299h577v770h-577v-770z" />
<glyph unicode="P" horiz-adv-x="1396" d="M68 0v1366h798q252 0 356.5 -104.5t104.5 -362.5q0 -256 -109.5 -367.5t-359.5 -111.5h-418v-420h-372zM440 713h504v360h-504v-360z" />
<glyph unicode="Q" horiz-adv-x="1499" d="M68 608q0 76 6 199t6 168q0 129 49 214t139 128q70 33 168.5 45t302.5 12q197 0 274 -6t140 -31q170 -57 213 -239q14 -59 20.5 -149.5t6.5 -260.5q0 -285 -22.5 -393.5t-98.5 -181.5q-53 -49 -112.5 -76t-162.5 -47h435v-318h-256q-336 0 -336 277l2 41h-109 q-182 0 -249.5 4t-129.5 18q-205 55 -260 250q-14 55 -20 131t-6 215zM457 313h551v758h-551v-758z" />
<glyph unicode="R" horiz-adv-x="1402" d="M68 0v1366h819q219 0 321 -61q63 -37 100.5 -115t37.5 -172q0 -250 -222 -305q51 -14 81 -30.5t57 -51.5q43 -55 57 -121t14 -219v-291h-372v510h-521v-510h-372zM440 801h521v272h-521v-272z" />
<glyph unicode="S" horiz-adv-x="1400" d="M68 944q0 125 45 221.5t127 143.5q55 33 122.5 45t202.5 12h664v-307h-787v-223h406q123 0 195.5 -14.5t130.5 -51.5q157 -99 157 -335q0 -126 -41 -219t-119 -144q-59 -39 -137 -55.5t-213 -16.5h-702v307h835v221h-319q-199 0 -258.5 6.5t-126.5 36.5 q-88 41 -135 136.5t-47 236.5z" />
<glyph unicode="T" horiz-adv-x="1404" d="M68 1059v307h1267v-307h-454v-1059h-373v1059h-440z" />
<glyph unicode="U" horiz-adv-x="1277" d="M0 532v834h373v-1067h532v1067h373l2 -528q0 -356 -8 -455.5t-47 -183.5q-57 -119 -179 -164t-387 -45q-266 0 -375.5 24.5t-179.5 102.5q-53 59 -78.5 161.5t-25.5 253.5z" />
<glyph unicode="V" horiz-adv-x="1585" d="M68 1366h393l346 -1059l338 1059h371l-472 -1366h-499z" />
<glyph unicode="W" horiz-adv-x="2082" d="M68 1366h383l190 -1079l203 1079h399l201 -1100l192 1100h379l-289 -1366h-497l-187 987l-184 -987h-502z" />
<glyph unicode="X" horiz-adv-x="1574" d="M68 0l424 702l-410 664h426l293 -483l278 483h410l-410 -676l426 -690h-426l-313 500l-299 -500h-399z" />
<glyph unicode="Y" horiz-adv-x="1624" d="M68 1366h424l342 -606l333 606h387l-544 -952v-414h-373v414z" />
<glyph unicode="Z" horiz-adv-x="1337" d="M68 0v418l749 641h-727v307h1139v-393l-772 -666h811v-307h-1200z" />
<glyph unicode="[" horiz-adv-x="747" d="M68 145v736q0 168 19 248.5t73 136.5q98 100 323 100h195v-240h-287v-1218h287v-236h-219q-109 0 -193 33t-129 92q-37 51 -53 131t-16 217z" />
<glyph unicode="]" horiz-adv-x="747" d="M68 -92h286v1218h-286v240h194q264 0 354 -139q33 -51 47.5 -130t14.5 -216v-736q0 -168 -22.5 -249.5t-82.5 -135.5q-100 -88 -286 -88h-219v236z" />
<glyph unicode="a" horiz-adv-x="1155" d="M29 330q0 160 90 233.5t287 73.5h368v154h-608v251h524q145 0 216 -20.5t118 -79.5q35 -41 49 -101.5t14 -176.5v-664h-643q-219 0 -317 78t-98 252zM385 225h389v185h-389v-185z" />
<glyph unicode="b" horiz-adv-x="1234" d="M68 0v1366h333v-324h365q125 0 195.5 -20.5t122 -74.5t67.5 -136t16 -299q0 -201 -20.5 -285t-83.5 -141q-55 -49 -127 -67.5t-217 -18.5h-651zM401 252h408v539h-408v-539z" />
<glyph unicode="c" horiz-adv-x="1024" d="M68 457q0 369 79.5 477t350.5 108h456v-251h-524v-539h524v-252h-460q-252 0 -339 93t-87 364z" />
<glyph unicode="d" horiz-adv-x="1222" d="M68 494q0 229 22.5 322t91.5 151q55 43 126 59t214 16h299v324h334v-1366h-592h-61q-106 0 -129 2t-76 14q-139 37 -184 130.5t-45 347.5zM424 252h397v539h-397v-539z" />
<glyph unicode="e" horiz-adv-x="1200" d="M68 539q0 209 27.5 298t107.5 144q61 41 151 55.5t293 14.5q184 0 267 -22.5t143 -90.5q45 -51 59 -118.5t14 -237.5v-185h-720v-145h704v-252h-563q-115 0 -165 4t-93 16q-131 41 -178 148.5t-47 370.5zM410 629h393v186h-393v-186z" />
<glyph unicode="f" horiz-adv-x="899" d="M68 676v252h161v76q0 129 25 193.5t96.5 115.5t171.5 51l135 2h174v-252h-268v-186h268v-252h-268v-676h-334v676h-161z" />
<glyph unicode="g" horiz-adv-x="1210" d="M68 555q0 190 28.5 281.5t106.5 142.5q53 35 122.5 49t204.5 14h613v-944q0 -102 -4 -143t-21 -84q-47 -121 -145.5 -162t-341.5 -41h-467v252h645v156h-262q-174 0 -252 18.5t-133.5 71.5t-74.5 137t-19 252zM434 328h375v463h-375v-463z" />
<glyph unicode="h" horiz-adv-x="1210" d="M68 0v1366h333v-324h338q229 0 315.5 -86t86.5 -319v-637h-334v791h-406v-791h-333z" />
<glyph unicode="i" horiz-adv-x="471" d="M68 0v1042h333v-1042h-333zM68 1161v205h333v-205h-333z" />
<glyph unicode="j" horiz-adv-x="755" d="M68 -82h284v1124h334v-985q0 -131 -20.5 -193.5t-83.5 -117.5q-49 -43 -120 -61.5t-188 -18.5h-206v252zM352 1161v205h334v-205h-334z" />
<glyph unicode="k" horiz-adv-x="1234" d="M68 0v1366h333v-731l326 407h397l-397 -487l438 -555h-397l-367 438v-438h-333z" />
<glyph unicode="l" horiz-adv-x="471" d="M68 0v1366h333v-1366h-333z" />
<glyph unicode="m" horiz-adv-x="1755" d="M68 0v1042h1241q129 0 206.5 -32.5t124.5 -108.5q29 -51 37.5 -101t8.5 -192v-608h-334v791h-310v-791h-333v791h-308v-791h-333z" />
<glyph unicode="n" horiz-adv-x="1208" d="M68 0v1042h651q262 0 352 -110q68 -78 68 -211v-125v-596h-334v791h-404v-791h-333z" />
<glyph unicode="o" horiz-adv-x="1245" d="M68 557q0 193 26.5 282t100.5 140q57 41 146 56.5t257 15.5q172 0 244.5 -6.5t130.5 -26.5q133 -51 176 -182q16 -43 21.5 -113t5.5 -205q0 -223 -24 -310t-97 -140q-57 -41 -153.5 -57.5t-287.5 -16.5q-215 0 -316 24.5t-157 92.5q-45 53 -59 140t-14 306zM420 250h416 v545h-416v-545z" />
<glyph unicode="p" horiz-adv-x="1234" d="M68 -322v1364h651q143 0 217 -18t127 -68q63 -57 83.5 -139t20.5 -287q0 -223 -15 -299.5t-71 -138.5q-90 -92 -315 -92h-365v-322h-333zM401 252h408v539h-408v-539z" />
<glyph unicode="q" horiz-adv-x="1234" d="M68 530q0 201 20.5 285t83.5 141q55 49 127 67.5t217 18.5h651v-1364h-333v322h-365q-125 0 -195.5 20.5t-122 75t-67.5 136t-16 298.5zM426 252h408v539h-408v-539z" />
<glyph unicode="r" horiz-adv-x="1091" d="M68 0v1042h518q102 0 132 -2t73 -14q125 -35 178 -125t53 -268v-178h-334v336h-287v-791h-333z" />
<glyph unicode="s" horiz-adv-x="1118" d="M68 709q0 199 127 280q51 33 110.5 43t202.5 10h463v-251h-570v-152h279q197 0 283 -69.5t86 -231.5q0 -174 -96.5 -256t-305.5 -82h-551v252h606v135h-198q-215 0 -299 39q-137 68 -137 283z" />
<glyph unicode="t" horiz-adv-x="946" d="M68 791v251h165v289h334v-289h310v-251h-310v-539h310v-252h-277q-129 0 -203.5 33t-117.5 112.5t-43 196.5l-3 147v302h-165z" />
<glyph unicode="u" horiz-adv-x="1204" d="M68 465v577h333v-790h400v790h334v-1042h-619q-168 0 -252 24.5t-131 88.5q-63 84 -63 215z" />
<glyph unicode="v" horiz-adv-x="1366" d="M68 1042h364l252 -839l256 839h356l-356 -1042h-508z" />
<glyph unicode="w" horiz-adv-x="1845" d="M68 1042h358l156 -825l176 825h325l179 -825l159 825h355l-254 -1042h-439l-168 707l-157 -707h-449z" />
<glyph unicode="x" horiz-adv-x="1316" d="M68 0l315 535l-315 507h372l224 -383l233 383h350l-315 -507l315 -535h-354l-238 379l-235 -379h-352z" />
<glyph unicode="y" horiz-adv-x="1361" d="M68 1042h370l262 -786l252 786h342l-342 -952q-96 -272 -199.5 -347t-383.5 -75h-217v252h360z" />
<glyph unicode="z" horiz-adv-x="1112" d="M68 0v340l594 451h-572v251h926v-342l-576 -448h604v-252h-976z" />
<glyph unicode="&#xab;" horiz-adv-x="1081" d="M98 528l168 340h264l-124 -340l155 -342h-272zM508 528l168 340h264l-125 -340l156 -342h-273z" />
<glyph unicode="&#xad;" horiz-adv-x="794" d="M68 557v287h657v-287h-657z" />
<glyph unicode="&#xbb;" horiz-adv-x="1081" d="M98 186l156 342l-125 340h264l168 -340l-190 -342h-273zM508 186l156 342l-125 340h264l168 -340l-191 -342h-272z" />
<glyph unicode="&#xc4;" horiz-adv-x="1628" d="M68 0l481 1366h526l484 -1366h-377l-88 254h-572l-96 -254h-358zM483 1438v204h265v-204h-265zM623 561h368l-186 547zM877 1438v204h264v-204h-264z" />
<glyph unicode="&#xc5;" horiz-adv-x="1642" d="M68 0l485 1346q-45 72 -45 153q0 125 63 174q37 29 85.5 37t185.5 8q195 0 248 -51q29 -27 45 -74t16 -104q0 -45 -8 -71.5t-37 -71.5l469 -1346h-377l-92 256h-578l-92 -256h-368zM635 563h375l-187 547zM682 1366h289v195h-289v-195z" />
<glyph unicode="&#xc6;" horiz-adv-x="2353" d="M68 0l794 1366h1422v-307h-687v-213h656v-307h-656v-232h687v-307h-1059v270h-596l-158 -270h-403zM786 578h439v497h-150z" />
<glyph unicode="&#xd6;" horiz-adv-x="1480" d="M68 678q0 283 20.5 394.5t89 182t192.5 95t427 24.5q160 0 230.5 -6t129.5 -25q156 -53 205 -172.5t49 -451.5q0 -287 -20.5 -405.5t-83.5 -188.5q-72 -78 -198 -106.5t-404 -28.5q-180 0 -249 6t-139 31q-152 55 -200.5 181t-48.5 470zM410 1438v204h264v-204h-264z M453 299h577v770h-577v-770zM803 1438v204h264v-204h-264z" />
<glyph unicode="&#xd7;" horiz-adv-x="1228" d="M176 414l275 276l-275 275l164 163l274 -276l275 276l164 -161l-277 -277l277 -274l-164 -164l-275 276l-276 -276z" />
<glyph unicode="&#xd8;" horiz-adv-x="1609" d="M68 -207l194 295q-86 102 -106.5 187t-20.5 339q0 279 13.5 388.5t54.5 189.5q76 141 301 172q49 6 107.5 8t203.5 2q168 0 334 -16l145 201h248l-194 -283q82 -86 106.5 -178t24.5 -328q0 -330 -21 -432q-29 -158 -103.5 -232.5t-228.5 -99.5q-45 -8 -119.5 -12 t-205.5 -4h-60q-80 0 -159.5 5t-108.5 5l-147 -207h-258zM514 358l500 723h-500v-723zM612 293h488v702z" />
<glyph unicode="&#xdc;" horiz-adv-x="1277" d="M0 532v834h373v-1067h532v1067h373l2 -528q0 -356 -8 -455.5t-47 -183.5q-57 -119 -179 -164t-387 -45q-266 0 -375.5 24.5t-179.5 102.5q-53 59 -78.5 161.5t-25.5 253.5zM309 1438v204h264v-204h-264zM702 1438v204h265v-204h-265z" />
<glyph unicode="&#xdf;" horiz-adv-x="1263" d="M68 0v881q0 301 109.5 396t451.5 95q272 0 376.5 -82t104.5 -299q0 -123 -24.5 -173t-122.5 -126q135 -39 184 -106.5t49 -216.5q0 -219 -91 -294t-353 -75h-211v252h315v297h-315v252h229v323h-369v-1124h-333z" />
<glyph unicode="&#xe4;" horiz-adv-x="1155" d="M49 330q0 160 90 233.5t287 73.5h369v154h-609v251h525q145 0 215.5 -20.5t117.5 -79.5q35 -41 49.5 -101.5t14.5 -176.5v-664h-643q-219 0 -317.5 78t-98.5 252zM309 1139v204h264v-204h-264zM406 225h389v185h-389v-185zM702 1139v204h265v-204h-265z" />
<glyph unicode="&#xe5;" horiz-adv-x="1177" d="M76 330q0 160 90 233.5t287 73.5h344v154h-637v251h172q-41 33 -41 107q0 127 66.5 172t254.5 45q184 0 256 -45t72 -162q0 -90 -59 -137q145 -43 196 -174q12 -33 22.5 -80t10.5 -94v-191v-483h-618q-219 0 -317.5 78t-98.5 252zM393 225h404v187h-404v-187zM453 1042 h323v177h-323v-177z" />
<glyph unicode="&#xe6;" horiz-adv-x="1767" d="M68 313q0 188 118 267q45 31 107.5 43t175.5 12h256v156h-565v251h508q96 0 149 -14t101 -53q96 76 327 76q248 0 351.5 -87t103.5 -294v-254h-662v-164h645v-252h-509q-123 0 -181.5 17.5t-99.5 64.5q-53 -53 -135 -70.5t-264 -17.5q-231 0 -328.5 72.5t-97.5 246.5z M399 236h326v180h-326v-180zM1038 623h334v192h-334v-192z" />
<glyph unicode="&#xf6;" horiz-adv-x="1245" d="M68 557q0 193 26.5 282t100.5 140q57 41 146 56.5t257 15.5q172 0 244.5 -6.5t130.5 -26.5q133 -51 176 -182q16 -43 21.5 -113t5.5 -205q0 -223 -24 -310t-97 -140q-57 -41 -153.5 -57.5t-287.5 -16.5q-215 0 -316 24.5t-157 92.5q-45 53 -59 140t-14 306zM293 1139v204 h264v-204h-264zM420 250h416v545h-416v-545zM686 1139v204h264v-204h-264z" />
<glyph unicode="&#xf8;" horiz-adv-x="1355" d="M68 -223l178 286q-78 86 -100.5 167t-22.5 282q0 348 101.5 443.5t473.5 95.5q72 0 123 -2t101 -5l145 209h219l-176 -280q80 -66 102.5 -148t22.5 -317q0 -203 -25.5 -293t-97.5 -145q-57 -43 -145 -59.5t-277 -16.5q-84 0 -137 2t-104 4l-162 -223h-219zM469 248h418 v555h-418v-555z" />
<glyph unicode="&#xfc;" horiz-adv-x="1204" d="M68 465v577h333v-790h400v790h334v-1042h-619q-168 0 -252 24.5t-131 88.5q-63 84 -63 215zM272 1139v204h265v-204h-265zM666 1139v204h264v-204h-264z" />
<glyph unicode="&#x152;" horiz-adv-x="2105" d="M68 649q0 270 26.5 398.5t100.5 201.5q66 63 161 90t258 27h1422v-307h-693v-209h664v-307h-664v-236h693v-307h-1434q-344 0 -455 154q-43 59 -61 169.5t-18 325.5zM451 307h520v752h-520v-752z" />
<glyph unicode="&#x153;" horiz-adv-x="1839" d="M68 518q0 217 24.5 311.5t93.5 147.5q55 41 138.5 57.5t244.5 16.5q166 0 237 -16.5t132 -69.5q68 49 145.5 67.5t229.5 18.5q254 0 355 -87t101 -305v-251h-682v-156h666v-252h-528q-104 0 -162.5 16.5t-124.5 63.5q-61 -53 -135 -69.5t-260 -16.5q-293 0 -384 101.5 t-91 422.5zM422 252h352v563h-352v-563zM1087 623h355v192h-355v-192z" />
<glyph unicode="&#x2000;" horiz-adv-x="859" />
<glyph unicode="&#x2001;" horiz-adv-x="1718" />
<glyph unicode="&#x2002;" horiz-adv-x="859" />
<glyph unicode="&#x2003;" horiz-adv-x="1718" />
<glyph unicode="&#x2004;" horiz-adv-x="572" />
<glyph unicode="&#x2005;" horiz-adv-x="429" />
<glyph unicode="&#x2006;" horiz-adv-x="286" />
<glyph unicode="&#x2007;" horiz-adv-x="286" />
<glyph unicode="&#x2008;" horiz-adv-x="214" />
<glyph unicode="&#x2009;" horiz-adv-x="343" />
<glyph unicode="&#x200a;" horiz-adv-x="95" />
<glyph unicode="&#x2010;" horiz-adv-x="794" d="M68 557v287h657v-287h-657z" />
<glyph unicode="&#x2011;" horiz-adv-x="794" d="M68 557v287h657v-287h-657z" />
<glyph unicode="&#x2012;" horiz-adv-x="794" d="M68 557v287h657v-287h-657z" />
<glyph unicode="&#x2013;" horiz-adv-x="722" d="M68 358v242h585v-242h-585z" />
<glyph unicode="&#x2014;" horiz-adv-x="2185" d="M68 557v287h2048v-287h-2048z" />
<glyph unicode="&#x2018;" horiz-adv-x="530" d="M68 713v211q0 174 22.5 256t83.5 131q47 35 109.5 49t177.5 14v-162h-191v-170h170v-329h-372z" />
<glyph unicode="&#x2019;" horiz-adv-x="530" d="M68 705v161h190v170h-170v330h373v-211q0 -174 -22.5 -256t-84.5 -131q-47 -35 -109.5 -49t-176.5 -14z" />
<glyph unicode="&#x201c;" horiz-adv-x="993" d="M68 713v211q0 174 22.5 256t83.5 131q47 35 109.5 49t177.5 14v-162h-191v-170h170v-329h-372zM532 713v211q0 174 23 256t84 131q47 35 109.5 49t177.5 14v-162h-191v-170h170v-329h-373z" />
<glyph unicode="&#x201d;" horiz-adv-x="993" d="M68 705v161h190v170h-170v330h373v-211q0 -174 -22.5 -256t-84.5 -131q-47 -35 -109.5 -49t-176.5 -14zM532 705v161h189v170h-168v330h373v-211q0 -174 -22.5 -256t-86.5 -131q-45 -35 -107.5 -49t-177.5 -14z" />
<glyph unicode="&#x201e;" horiz-adv-x="993" d="M68 -143h190v170h-170v329h373v-211q0 -174 -22.5 -256t-84.5 -131q-47 -35 -109.5 -49t-176.5 -14v162zM532 -143h189v170h-168v329h373v-211q0 -174 -22.5 -256t-86.5 -131q-45 -35 -107.5 -49t-177.5 -14v162z" />
<glyph unicode="&#x202f;" horiz-adv-x="343" />
<glyph unicode="&#x205f;" horiz-adv-x="429" />
<glyph unicode="&#xe000;" horiz-adv-x="1044" d="M0 0v1044h1044v-1044h-1044z" />
</font>
</defs>
</svg>
